<svg
        width="93"
        height="112"
        viewBox="0 0 93 112"
        fill="none"
        xmlns="http://www.w3.org/2000/svg"
      >
        <path
          d="M88.4688 111.187C87.5951 111.187 86.7477 110.891 86.0664 110.349L67.9047 95.9374H53.875C52.8556 95.9374 51.8779 95.5358 51.1571 94.8208C50.4362 94.1058 50.0312 93.1361 50.0312 92.1249V73.0624C50.0312 72.0513 50.4362 71.0816 51.1571 70.3666C51.8779 69.6516 52.8556 69.2499 53.875 69.2499H67.9047L86.0702 54.8387C86.6354 54.391 87.3165 54.1106 88.0352 54.0297C88.7538 53.9488 89.4809 54.0706 90.1329 54.3812C90.7849 54.6918 91.3353 55.1786 91.7208 55.7855C92.1064 56.3925 92.3115 57.095 92.3125 57.8124V107.375C92.3125 108.386 91.9075 109.356 91.1867 110.071C90.4659 110.786 89.4882 111.187 88.4688 111.187ZM57.7188 88.3124H69.25C70.1236 88.3131 70.9709 88.609 71.6523 89.1512L84.625 99.4449V65.7424L71.6485 76.0362C70.9681 76.5776 70.1223 76.8734 69.25 76.8749H57.7188V88.3124Z"
          fill="white"
        />
        <path
          d="M38.5 99.7499H7.75V8.24995H38.5V31.125C38.5061 33.1454 39.318 35.0813 40.7583 36.51C42.1987 37.9386 44.1505 38.7439 46.1875 38.75H69.25V50.1875H76.9375V31.125C76.9511 30.6239 76.855 30.1259 76.6559 29.6652C76.4569 29.2045 76.1595 28.792 75.7844 28.4562L48.8781 1.7687C48.5397 1.39639 48.1239 1.10133 47.6594 0.903865C47.1949 0.706403 46.6927 0.611244 46.1875 0.624954H7.75C5.71302 0.630988 3.76121 1.43627 2.32084 2.86493C0.880468 4.29359 0.0685836 6.22953 0.0625 8.24995V99.7499C0.0685836 101.77 0.880468 103.706 2.32084 105.135C3.76121 106.564 5.71302 107.369 7.75 107.375H38.5V99.7499ZM46.1875 9.77495L67.7125 31.125H46.1875V9.77495Z"
          fill="white"
        />
      </svg>