<svg width="112" height="140" viewBox="0 0 112 140" fill="none" xmlns="http://www.w3.org/2000/svg">
<path fill-rule="evenodd" clip-rule="evenodd" d="M0.666626 135.708C0.666626 134.791 1.03099 133.911 1.67955 133.263C2.32811 132.614 3.20775 132.25 4.12496 132.25H107.875C108.792 132.25 109.672 132.614 110.32 133.263C110.969 133.911 111.333 134.791 111.333 135.708C111.333 136.626 110.969 137.505 110.32 138.154C109.672 138.802 108.792 139.167 107.875 139.167H4.12496C3.20775 139.167 2.32811 138.802 1.67955 138.154C1.03099 137.505 0.666626 136.626 0.666626 135.708Z" fill="url(#paint0_linear_0_1)"/>
<path fill-rule="evenodd" clip-rule="evenodd" d="M14.4999 63.0833V132.25H31.7916V63.0833H14.4999ZM11.0416 56.1666C10.1244 56.1666 9.24474 56.531 8.59617 57.1795C7.94761 57.8281 7.58325 58.7078 7.58325 59.625V135.708C7.58325 136.625 7.94761 137.505 8.59617 138.154C9.24474 138.802 10.1244 139.167 11.0416 139.167H35.2499C36.1671 139.167 37.0468 138.802 37.6953 138.154C38.3439 137.505 38.7083 136.625 38.7083 135.708V59.625C38.7083 58.7078 38.3439 57.8281 37.6953 57.1795C37.0468 56.531 36.1671 56.1666 35.2499 56.1666H11.0416Z" fill="url(#paint1_linear_0_1)"/>
<path fill-rule="evenodd" clip-rule="evenodd" d="M31.7916 0.833313L87.125 21.5833V70H80.2083V26.3766L38.7083 10.8141V132.25H66.375C66.375 133.167 66.7393 134.047 67.3879 134.695C68.0364 135.344 68.9161 135.708 69.8333 135.708H87.125V139.167H31.7916V0.833313Z" fill="url(#paint2_linear_0_1)"/>
<path d="M42.1666 31.9583H49.0833V38.875H42.1666V31.9583ZM56 31.9583H62.9166V38.875H56V31.9583ZM69.8333 31.9583H76.75V38.875H69.8333V31.9583ZM42.1666 45.7916H49.0833V52.7083H42.1666V45.7916ZM56 45.7916H62.9166V52.7083H56V45.7916ZM69.8333 45.7916H76.75V52.7083H69.8333V45.7916ZM42.1666 59.625H49.0833V66.5416H42.1666V59.625ZM56 59.625H62.9166V66.5416H56V59.625ZM69.8333 59.625H76.75V66.5416H69.8333V59.625ZM42.1666 73.4583H49.0833V80.375H42.1666V73.4583ZM56 73.4583H62.9166V80.375H56V73.4583ZM42.1666 87.2916H49.0833V94.2083H42.1666V87.2916ZM56 87.2916H62.9166V94.2083H56V87.2916ZM42.1666 101.125H49.0833V108.042H42.1666V101.125ZM56 101.125H62.9166V108.042H56V101.125ZM42.1666 114.958H49.0833V121.875H42.1666V114.958ZM56 114.958H62.9166V121.875H56V114.958Z" fill="url(#paint3_linear_0_1)"/>
<path fill-rule="evenodd" clip-rule="evenodd" d="M73.2917 76.9167V132.25H97.5V76.9167H73.2917ZM69.8333 70C68.9161 70 68.0365 70.3644 67.3879 71.0129C66.7394 71.6615 66.375 72.5411 66.375 73.4583V135.708C66.375 136.626 66.7394 137.505 67.3879 138.154C68.0365 138.802 68.9161 139.167 69.8333 139.167H100.958C101.876 139.167 102.755 138.802 103.404 138.154C104.052 137.505 104.417 136.626 104.417 135.708V73.4583C104.417 72.5411 104.052 71.6615 103.404 71.0129C102.755 70.3644 101.876 70 100.958 70H69.8333Z" fill="url(#paint4_linear_0_1)"/>
<path fill-rule="evenodd" clip-rule="evenodd" d="M90.5833 90.75H80.2083V83.8333H90.5833V90.75ZM90.5833 104.583H80.2083V97.6666H90.5833V104.583ZM90.5833 118.417H80.2083V111.5H90.5833V118.417ZM90.5833 132.25H80.2083V125.333H90.5833V132.25ZM24.8749 31.9583V63.0833H17.9583V31.9583H24.8749Z" fill="url(#paint5_linear_0_1)"/>
<defs>
<linearGradient id="paint0_linear_0_1" x1="56" y1="132.25" x2="56" y2="139.167" gradientUnits="userSpaceOnUse">
<stop stop-color="#0B193C"/>
<stop offset="1" stop-color="#1B3884"/>
</linearGradient>
<linearGradient id="paint1_linear_0_1" x1="23.1458" y1="56.1666" x2="23.1458" y2="139.167" gradientUnits="userSpaceOnUse">
<stop stop-color="#0B193C"/>
<stop offset="1" stop-color="#1B3884"/>
</linearGradient>
<linearGradient id="paint2_linear_0_1" x1="59.4583" y1="0.833313" x2="59.4583" y2="139.167" gradientUnits="userSpaceOnUse">
<stop stop-color="#0B193C"/>
<stop offset="1" stop-color="#1B3884"/>
</linearGradient>
<linearGradient id="paint3_linear_0_1" x1="59.4583" y1="31.9583" x2="59.4583" y2="121.875" gradientUnits="userSpaceOnUse">
<stop stop-color="#0B193C"/>
<stop offset="1" stop-color="#1B3884"/>
</linearGradient>
<linearGradient id="paint4_linear_0_1" x1="85.3958" y1="70" x2="85.3958" y2="139.167" gradientUnits="userSpaceOnUse">
<stop stop-color="#0B193C"/>
<stop offset="1" stop-color="#1B3884"/>
</linearGradient>
<linearGradient id="paint5_linear_0_1" x1="54.2708" y1="31.9583" x2="54.2708" y2="132.25" gradientUnits="userSpaceOnUse">
<stop stop-color="#0B193C"/>
<stop offset="1" stop-color="#1B3884"/>
</linearGradient>
</defs>
</svg>
