 <svg
        width="109"
        height="109"
        viewBox="0 0 109 109"
        fill="none"
        xmlns="http://www.w3.org/2000/svg"
      >
        <path
          fillRule="evenodd"
          clipRule="evenodd"
          d="M81.3125 38.2189C84.7773 39.2556 87.2708 39.6042 87.2708 39.6042V30.6667H93.2292C97.1798 30.6667 100.969 29.0973 103.762 26.3038C106.556 23.5103 108.125 19.7215 108.125 15.7708C108.125 11.8202 106.556 8.0314 103.762 5.23789C100.969 2.44438 97.1798 0.875 93.2292 0.875H76.0573C71.9202 0.875 67.9525 2.51845 65.0272 5.44382C62.1018 8.36918 60.4583 12.3368 60.4583 16.4739C60.4583 29.9338 73.4118 35.8564 81.3125 38.2189ZM102.167 15.7708C102.167 18.1412 101.225 20.4145 99.5489 22.0906C97.8728 23.7667 95.5995 24.7083 93.2292 24.7083H81.3125V31.9626C79.6781 31.4076 78.0826 30.7438 76.5369 29.9755C70.6292 27.0142 66.4167 22.8017 66.4167 16.4739C66.4167 13.9171 67.4324 11.465 69.2403 9.657C71.0483 7.84904 73.5004 6.83333 76.0573 6.83333H93.2292C95.5995 6.83333 97.8728 7.77496 99.5489 9.45107C101.225 11.1272 102.167 13.4005 102.167 15.7708ZM27.1423 36.6041C23.2382 36.469 19.5435 34.8049 16.855 31.9707C14.1665 29.1366 12.6994 25.3594 12.7701 21.4535C12.8409 17.5477 14.4438 13.8261 17.2332 11.0912C20.0226 8.35623 23.7751 6.82705 27.6815 6.83333H37.1225C40.9412 6.83333 44.6035 8.35029 47.3037 11.0505C50.0039 13.7507 51.5208 17.413 51.5208 21.2316C51.5208 33.2734 40.7065 38.7789 33.6458 41.0938C30.2257 42.2139 27.6875 42.5833 27.6875 42.5833V36.625L27.1423 36.6041ZM33.6458 30.8782L27.3598 30.6518C24.9976 30.6004 22.7519 29.6152 21.1146 27.9117C19.4772 26.2082 18.5816 23.9254 18.6237 21.563C18.6659 19.2005 19.6424 16.9511 21.3395 15.3071C23.0366 13.6632 25.316 12.7587 27.6786 12.7917H37.1195C38.2281 12.7913 39.326 13.0093 40.3503 13.4333C41.3746 13.8572 42.3054 14.4789 43.0894 15.2626C43.8735 16.0464 44.4954 16.9769 44.9198 18.0011C45.3441 19.0253 45.5625 20.123 45.5625 21.2316C45.5625 26.9368 41.9369 30.6756 36.8514 33.3271C35.7789 33.8871 34.6915 34.3638 33.6458 34.769V30.8782ZM66.4167 54.5C66.4167 61.084 61.084 66.4167 54.5 66.4167C47.916 66.4167 42.5833 61.084 42.5833 54.5C42.5833 47.916 47.916 42.5833 54.5 42.5833C61.084 42.5833 66.4167 47.916 66.4167 54.5ZM60.4583 54.5C60.4583 56.0802 59.8306 57.5958 58.7132 58.7132C57.5958 59.8306 56.0802 60.4583 54.5 60.4583C52.9198 60.4583 51.4042 59.8306 50.2868 58.7132C49.1694 57.5958 48.5417 56.0802 48.5417 54.5C48.5417 52.9198 49.1694 51.4042 50.2868 50.2868C51.4042 49.1694 52.9198 48.5417 54.5 48.5417C56.0802 48.5417 57.5958 49.1694 58.7132 50.2868C59.8306 51.4042 60.4583 52.9198 60.4583 54.5ZM39.6042 60.4583C39.6042 67.0423 34.2715 72.375 27.6875 72.375C21.1035 72.375 15.7708 67.0423 15.7708 60.4583C15.7708 53.8744 21.1035 48.5417 27.6875 48.5417C34.2715 48.5417 39.6042 53.8744 39.6042 60.4583ZM33.6458 60.4583C33.6458 62.0386 33.0181 63.5541 31.9007 64.6715C30.7833 65.7889 29.2677 66.4167 27.6875 66.4167C26.1073 66.4167 24.5917 65.7889 23.4743 64.6715C22.3569 63.5541 21.7292 62.0386 21.7292 60.4583C21.7292 58.8781 22.3569 57.3626 23.4743 56.2452C24.5917 55.1278 26.1073 54.5 27.6875 54.5C29.2677 54.5 30.7833 55.1278 31.9007 56.2452C33.0181 57.3626 33.6458 58.8781 33.6458 60.4583ZM0.875 91.8736C0.875 82.8706 18.7381 78.3333 27.6875 78.3333C29.4303 78.3333 31.5128 78.5061 33.7352 78.8487C37.7273 75.9202 45.0471 72.375 54.5 72.375C63.9499 72.375 71.2697 75.9202 75.2678 78.8487C77.267 78.5263 79.2876 78.3541 81.3125 78.3333C90.2619 78.3333 108.125 82.8706 108.125 91.8736V108.125H0.875V91.8736ZM47.5049 90.3185C48.5417 91.2838 48.5417 91.7872 48.5417 91.8736V102.167H6.83333V91.8736C6.83333 91.7843 6.83333 91.2838 7.87008 90.3185C8.95152 89.3086 10.736 88.2331 13.1611 87.25C18.0231 85.2837 23.9635 84.2917 27.6875 84.2917C31.4115 84.2917 37.3519 85.2837 42.2139 87.25C44.639 88.2331 46.4235 89.3086 47.5049 90.3185ZM66.8397 80.8835C62.9453 79.1948 58.7447 78.3267 54.5 78.3333C49.5665 78.3333 45.3718 79.4833 42.1633 80.8835C48.7621 83.1 54.5 86.7703 54.5 91.8766C54.5 86.7703 60.2379 83.103 66.8397 80.8835ZM102.167 91.8766C102.167 91.7873 102.167 91.2838 101.13 90.3185C100.048 89.3086 98.264 88.2331 95.8389 87.25C90.9769 85.2837 85.0365 84.2917 81.3125 84.2917C77.5885 84.2917 71.6481 85.2837 66.7861 87.25C64.361 88.2331 62.5765 89.3086 61.4951 90.3185C60.4583 91.2838 60.4583 91.7872 60.4583 91.8736V102.167H102.167V91.8736V91.8766ZM81.3125 72.375C87.8965 72.375 93.2292 67.0423 93.2292 60.4583C93.2292 53.8744 87.8965 48.5417 81.3125 48.5417C74.7285 48.5417 69.3958 53.8744 69.3958 60.4583C69.3958 67.0423 74.7285 72.375 81.3125 72.375ZM81.3125 66.4167C82.8928 66.4167 84.4083 65.7889 85.5257 64.6715C86.6431 63.5541 87.2708 62.0386 87.2708 60.4583C87.2708 58.8781 86.6431 57.3626 85.5257 56.2452C84.4083 55.1278 82.8928 54.5 81.3125 54.5C79.7323 54.5 78.2167 55.1278 77.0993 56.2452C75.9819 57.3626 75.3542 58.8781 75.3542 60.4583C75.3542 62.0386 75.9819 63.5541 77.0993 64.6715C78.2167 65.7889 79.7323 66.4167 81.3125 66.4167Z"
          fill="white"
        />
      </svg>