<svg width="100" height="101" viewBox="0 0 100 101" fill="none" xmlns="http://www.w3.org/2000/svg">
<path d="M99.875 46.9062H92.5719C91.7192 36.7578 87.3354 27.2407 80.1962 20.0389C73.0571 12.8371 63.6227 8.41489 53.5625 7.55469V0.1875H46.4375V7.55469C36.3773 8.41489 26.9429 12.8371 19.8038 20.0389C12.6646 27.2407 8.28085 36.7578 7.42813 46.9062H0.125V54.0938H7.42813C8.28085 64.2422 12.6646 73.7593 19.8038 80.9611C26.9429 88.1629 36.3773 92.5851 46.4375 93.4453V100.812H53.5625V93.4453C63.6227 92.5851 73.0571 88.1629 80.1962 80.9611C87.3354 73.7593 91.7192 64.2422 92.5719 54.0938H99.875V46.9062ZM53.5625 86.2578V72.0625H46.4375V86.2578C38.265 85.4178 30.6301 81.7592 24.8214 75.8995C19.0126 70.0398 15.3858 62.3379 14.5531 54.0938H28.625V46.9062H14.5531C15.3858 38.6621 19.0126 30.9602 24.8214 25.1005C30.6301 19.2408 38.265 15.5822 46.4375 14.7422V28.9375H53.5625V14.7422C61.735 15.5822 69.3699 19.2408 75.1786 25.1005C80.9874 30.9602 84.6142 38.6621 85.4469 46.9062H71.375V54.0938H85.4469C84.6142 62.3379 80.9874 70.0398 75.1786 75.8995C69.3699 81.7592 61.735 85.4178 53.5625 86.2578Z" fill="url(#paint0_linear_29_251)"/>
<defs>
<linearGradient id="paint0_linear_29_251" x1="50" y1="0.1875" x2="50" y2="100.812" gradientUnits="userSpaceOnUse">
<stop stop-color="#0B193C"/>
<stop offset="1" stop-color="#1B3884"/>
</linearGradient>
</defs>
</svg>
