<svg width="111" height="94" viewBox="0 0 111 94" fill="none" xmlns="http://www.w3.org/2000/svg">
<path d="M37.6353 70.2701H23.2744V55.9093C23.2744 55.3646 22.8288 54.9189 22.284 54.9189H16.3416C15.7969 54.9189 15.3512 55.3646 15.3512 55.9093V70.2701H0.990401C0.445681 70.2701 0 70.7158 0 71.2605V77.2029C0 77.7476 0.445681 78.1933 0.990401 78.1933H15.3512V92.5541C15.3512 93.0989 15.7969 93.5445 16.3416 93.5445H22.284C22.8288 93.5445 23.2744 93.0989 23.2744 92.5541V78.1933H37.6353C38.18 78.1933 38.6257 77.7476 38.6257 77.2029V71.2605C38.6257 70.7158 38.18 70.2701 37.6353 70.2701Z" fill="url(#paint0_linear_29_247)"/>
<path d="M104.983 18.0635L89.1361 27.1876V8.36999C89.1361 3.99984 85.5831 0.446777 81.2129 0.446777H7.92321C3.55307 0.446777 0 3.99984 0 8.36999V51.9476H8.91361V9.36039H80.2225V78.6885H47.5393V87.6021H81.2129C85.5831 87.6021 89.1361 84.049 89.1361 79.6789V60.8613L104.983 69.9853C107.619 71.5081 110.925 69.6015 110.925 66.5684V21.4928C110.925 18.4473 107.619 16.5408 104.983 18.0635ZM102.011 58.0139L89.1361 50.6106V37.4506L102.011 30.035V58.0139Z" fill="url(#paint1_linear_29_247)"/>
<path d="M31.6928 25.2068C32.2375 25.2068 32.6832 24.7612 32.6832 24.2164V18.274C32.6832 17.7293 32.2375 17.2836 31.6928 17.2836H17.8272C17.2825 17.2836 16.8368 17.7293 16.8368 18.274V24.2164C16.8368 24.7612 17.2825 25.2068 17.8272 25.2068H31.6928Z" fill="url(#paint2_linear_29_247)"/>
<defs>
<linearGradient id="paint0_linear_29_247" x1="19.3128" y1="54.9189" x2="19.3128" y2="93.5445" gradientUnits="userSpaceOnUse">
<stop stop-color="#0B193C"/>
<stop offset="1" stop-color="#1B3884"/>
</linearGradient>
<linearGradient id="paint1_linear_29_247" x1="55.4625" y1="0.446777" x2="55.4625" y2="87.6021" gradientUnits="userSpaceOnUse">
<stop stop-color="#0B193C"/>
<stop offset="1" stop-color="#1B3884"/>
</linearGradient>
<linearGradient id="paint2_linear_29_247" x1="24.76" y1="17.2836" x2="24.76" y2="25.2068" gradientUnits="userSpaceOnUse">
<stop stop-color="#0B193C"/>
<stop offset="1" stop-color="#1B3884"/>
</linearGradient>
</defs>
</svg>
