  <svg
        width="116"
        height="76"
        viewBox="0 0 116 76"
        fill="none"
        xmlns="http://www.w3.org/2000/svg"
      >
        <path
          d="M15.6272 0.877197L23.0507 8.3007C19.1449 12.1966 16.0475 16.826 13.9365 21.9228C11.8256 27.0196 10.7426 32.4833 10.75 37.9999C10.75 49.6024 15.4487 60.1024 23.0507 67.6992L15.6325 75.1174C6.12475 65.6202 0.25 52.4952 0.25 37.9999C0.25 23.5047 6.13 10.3797 15.6272 0.877197ZM100.373 0.877197C109.875 10.3797 115.75 23.5047 115.75 37.9999C115.75 52.4952 109.87 65.6254 100.373 75.1227L92.9492 67.6992C100.551 60.0972 105.25 49.5972 105.25 37.9999C105.25 26.4027 100.551 15.9079 92.9545 8.30595L100.367 0.882447L100.373 0.877197ZM63.25 1.24995V32.7499H79L52.75 74.7499V43.2499H37L63.25 1.24995ZM30.4742 15.7242L37.903 23.1529C35.9491 25.0998 34.3996 27.4138 33.3436 29.9619C32.2876 32.51 31.746 35.2417 31.75 37.9999C31.75 43.8012 34.102 49.0512 37.903 52.8469L30.4742 60.2757C27.5458 57.3529 25.2235 53.8804 23.6405 50.0578C22.0576 46.2351 21.2452 42.1374 21.25 37.9999C21.25 29.3007 24.778 21.4257 30.4742 15.7242ZM85.531 15.7294C88.4581 18.6519 90.7792 22.1236 92.3613 25.9454C93.9433 29.7672 94.7551 33.8637 94.75 37.9999C94.7548 42.1374 93.9424 46.2351 92.3594 50.0578C90.7765 53.8804 88.4542 57.3529 85.5257 60.2757L78.097 52.8469C80.0509 50.9001 81.6004 48.5861 82.6564 46.038C83.7124 43.4899 84.254 40.7582 84.25 37.9999C84.2541 35.2434 83.7136 32.5133 82.6595 29.9663C81.6053 27.4193 80.0584 25.1056 78.1075 23.1582L85.531 15.7294Z"
          fill="white"
        />
      </svg>